<?xml version="1.0" encoding="UTF-8"?>
<svg id="Layer_1" data-name="Layer 1" xmlns="http://www.w3.org/2000/svg" viewBox="0 0 600 600">
    <g transform="translate(0,150)">
        <g>
            <g>
            <path d="M50.08,230.54l-.25.13-32.43,32.43L.25,210.25h45c0,7.3,1.74,14.19,4.83,20.29Z" style="fill: #1d56e6; stroke-width: 0px;"/>
            <path d="M.25,210.25l17.15,52.85C6.61,248.26.25,230,.25,210.25Z" style="fill: #1d56e6; stroke-width: 0px;"/>
            </g>
            <g>
            <path d="M17.4,263.1C6.61,248.26.25,230,.25,210.25" style="fill: none; stroke: #1d56e6; stroke-miterlimit: 10; stroke-width: 0px;"/>
            <path d="M50.47,231.31c-.13-.25-.27-.51-.39-.77-3.09-6.1-4.83-12.99-4.83-20.29" style="fill: none; stroke: #1d56e6; stroke-miterlimit: 10; stroke-width: 0px;"/>
            <line x1=".25" y1="210.25" x2="45.25" y2="210.25" style="fill: none; stroke: #1d56e6; stroke-miterlimit: 10; stroke-width: 0px;"/>
            <line x1="17.4" y1="263.1" x2="49.83" y2="230.67" style="fill: none; stroke: #1d56e6; stroke-miterlimit: 10; stroke-width: 0px;"/>
            </g>
        </g>
        <g>
            <polygon points="180.25 .25 180.25 149.12 155.81 124.69 135.25 145.25 135.25 45.25 45.25 45.25 45.25 .25 180.25 .25" style="fill: #1d56e6; stroke-width: 0px;"/>
            <g>
            <line x1="180.25" y1="149.12" x2="180.25" y2=".25" style="fill: none; stroke: #1d56e6; stroke-miterlimit: 10; stroke-width: 0px;"/>
            <line x1="135.25" y1="145.25" x2="135.25" y2="45.25" style="fill: none; stroke: #1d56e6; stroke-miterlimit: 10; stroke-width: 0px;"/>
            <line x1="135.25" y1="45.25" x2="45.25" y2="45.25" style="fill: none; stroke: #1d56e6; stroke-miterlimit: 10; stroke-width: 0px;"/>
            <line x1="180.25" y1=".25" x2="45.25" y2=".25" style="fill: none; stroke: #1d56e6; stroke-miterlimit: 10; stroke-width: 0px;"/>
            <line x1="45.25" y1="45.25" x2="45.25" y2=".25" style="fill: none; stroke: #1d56e6; stroke-miterlimit: 10; stroke-width: 0px;"/>
            <line x1="135.25" y1="145.25" x2="155.81" y2="124.69" style="fill: none; stroke: #1d56e6; stroke-miterlimit: 10; stroke-width: 0px;"/>
            <line x1="155.81" y1="124.69" x2="180.25" y2="149.12" style="fill: none; stroke: #1d56e6; stroke-miterlimit: 10; stroke-width: 0px;"/>
            </g>
        </g>
        <g>
            <g>
            <path d="M76.65,253.16l-50.04,20.73,31.82-31.82c5.04,5.04,11.26,8.89,18.22,11.09Z" style="fill: #bbbbbb; stroke-width: 0px;"/>
            <path d="M180.63,169.51l-.38.38v40.36l-50.05,20.73c3.23-6.21,5.05-13.26,5.05-20.73v-44.07l-.46-.46,21.02-21.03,24.82,24.82Z" style="fill: #bbbbbb; stroke-width: 0px;"/>
            <path d="M130.2,230.98l50.05-20.73c0,49.71-40.29,90-90,90-24.85,0-47.35-10.07-63.64-26.36l50.04-20.73c4.29,1.36,8.86,2.09,13.6,2.09,17.38,0,32.45-9.85,39.95-24.27Z" style="fill: #bbbbbb; stroke-width: 0px;"/>
            </g>
            <g>
            <path d="M180.25,210.25c0,49.71-40.29,90-90,90-24.85,0-47.35-10.07-63.64-26.36" style="fill: none; stroke: #1d56e6; stroke-miterlimit: 10; stroke-width: 0px;"/>
            <path d="M135.25,210.25c0,7.47-1.82,14.52-5.05,20.73-7.5,14.42-22.57,24.27-39.95,24.27-4.74,0-9.31-.73-13.6-2.09-6.96-2.2-13.18-6.05-18.22-11.09" style="fill: none; stroke: #1d56e6; stroke-miterlimit: 10; stroke-width: 0px;"/>
            <line x1="180.25" y1="210.25" x2="180.25" y2="169.89" style="fill: none; stroke: #1d56e6; stroke-miterlimit: 10; stroke-width: 0px;"/>
            <line x1="135.25" y1="210.25" x2="135.25" y2="166.18" style="fill: none; stroke: #1d56e6; stroke-miterlimit: 10; stroke-width: 0px;"/>
            <polyline points="134.32 166.18 134.79 165.72 155.81 144.69" style="fill: none; stroke: #1d56e6; stroke-miterlimit: 10; stroke-width: 0px;"/>
            <line x1="26.61" y1="273.89" x2="58.43" y2="242.07" style="fill: none; stroke: #1d56e6; stroke-miterlimit: 10; stroke-width: 0px;"/>
            <polyline points="155.81 144.69 180.63 169.51 181.01 169.89" style="fill: none; stroke: #1d56e6; stroke-miterlimit: 10; stroke-width: 0px;"/>
            </g>
        </g>
        <g>
            <g>
            <polygon points="391 90.25 391 161.88 360.87 131.76 346 146.63 346 90.25 391 90.25" style="fill: #1d56e6; stroke-width: 0px;"/>
            <polygon points="256 90.25 256 182.45 240.67 167.11 219.45 188.33 210.46 179.34 211 178.8 211 90.25 256 90.25" style="fill: #1d56e6; stroke-width: 0px;"/>
            <path d="M391,90.25h-45c0-24.85-20.15-45-45-45s-45,20.15-45,45h-45C211,40.54,251.29.25,301,.25s90,40.29,90,90Z" style="fill: #1d56e6; stroke-width: 0px;"/>
            </g>
            <g>
            <path d="M211,90.25C211,40.54,251.29.25,301,.25s90,40.29,90,90" style="fill: none; stroke: #1d56e6; stroke-miterlimit: 10; stroke-width: 0px;"/>
            <path d="M256,90.25c0-24.85,20.15-45,45-45s45,20.15,45,45" style="fill: none; stroke: #1d56e6; stroke-miterlimit: 10; stroke-width: 0px;"/>
            <line x1="211" y1="178.8" x2="211" y2="90.25" style="fill: none; stroke: #1d56e6; stroke-miterlimit: 10; stroke-width: 0px;"/>
            <line x1="256" y1="182.45" x2="256" y2="90.25" style="fill: none; stroke: #1d56e6; stroke-miterlimit: 10; stroke-width: 0px;"/>
            <line x1="346" y1="146.63" x2="346" y2="90.25" style="fill: none; stroke: #1d56e6; stroke-miterlimit: 10; stroke-width: 0px;"/>
            <line x1="391" y1="161.88" x2="391" y2="90.25" style="fill: none; stroke: #1d56e6; stroke-miterlimit: 10; stroke-width: 0px;"/>
            <polyline points="209.92 178.8 210.46 179.34 219.45 188.33" style="fill: none; stroke: #1d56e6; stroke-miterlimit: 10; stroke-width: 0px;"/>
            <line x1="219.45" y1="188.33" x2="240.67" y2="167.11" style="fill: none; stroke: #1d56e6; stroke-miterlimit: 10; stroke-width: 0px;"/>
            <line x1="240.67" y1="167.11" x2="256" y2="182.45" style="fill: none; stroke: #1d56e6; stroke-miterlimit: 10; stroke-width: 0px;"/>
            <line x1="346" y1="146.63" x2="360.87" y2="131.76" style="fill: none; stroke: #1d56e6; stroke-miterlimit: 10; stroke-width: 0px;"/>
            <line x1="360.87" y1="131.76" x2="391" y2="161.88" style="fill: none; stroke: #1d56e6; stroke-miterlimit: 10; stroke-width: 0px;"/>
            </g>
        </g>
        <g>
            <g>
            <path d="M524.85,253.31c18.46-5.61,31.9-22.76,31.9-43.06v-45h-45v-45h88.5v90l-42.19,76.27-33.21-33.21Z" style="fill: #1d56e6; stroke-width: 0px;"/>
            <path d="M558.06,286.52l42.19-76.27c0,32.14-16.85,60.35-42.19,76.27Z" style="fill: #1d56e6; stroke-width: 0px;"/>
            </g>
            <g>
            <path d="M600.25,210.25c0,32.14-16.85,60.35-42.19,76.27" style="fill: none; stroke: #1d56e6; stroke-miterlimit: 10; stroke-width: 0px;"/>
            <path d="M556.75,210.25c0,20.3-13.44,37.45-31.9,43.06" style="fill: none; stroke: #1d56e6; stroke-miterlimit: 10; stroke-width: 0px;"/>
            <line x1="600.25" y1="210.25" x2="600.25" y2="120.25" style="fill: none; stroke: #1d56e6; stroke-miterlimit: 10; stroke-width: 0px;"/>
            <line x1="556.75" y1="210.25" x2="556.75" y2="165.25" style="fill: none; stroke: #1d56e6; stroke-miterlimit: 10; stroke-width: 0px;"/>
            <polyline points="600.25 120.25 511.75 120.25 510.25 120.25" style="fill: none; stroke: #1d56e6; stroke-miterlimit: 10; stroke-width: 0px;"/>
            <line x1="556.75" y1="165.25" x2="511.75" y2="165.25" style="fill: none; stroke: #1d56e6; stroke-miterlimit: 10; stroke-width: 0px;"/>
            <line x1="511.75" y1="165.25" x2="511.75" y2="120.25" style="fill: none; stroke: #1d56e6; stroke-miterlimit: 10; stroke-width: 0px;"/>
            <line x1="524.85" y1="253.31" x2="558.06" y2="286.52" style="fill: none; stroke: #1d56e6; stroke-miterlimit: 10; stroke-width: 0px;"/>
            </g>
        </g>
        <g>
            <g>
            <polygon points="466.75 90.25 466.75 195.21 452.8 181.26 431.59 202.47 420.25 191.13 420.25 90.25 466.75 90.25" style="fill: #1d56e6; stroke-width: 0px;"/>
            <path d="M420.25,90.25C420.25,40.54,460.54.25,510.25.25s90,40.29,90,90h-43.5c0-24.85-20.15-45-45-45s-45,20.15-45,45h-46.5Z" style="fill: #1d56e6; stroke-width: 0px;"/>
            </g>
            <g>
            <path d="M420.25,90.25C420.25,40.54,460.54.25,510.25.25s90,40.29,90,90" style="fill: none; stroke: #1d56e6; stroke-miterlimit: 10; stroke-width: 0px;"/>
            <path d="M466.75,90.25c0-24.85,20.15-45,45-45s45,20.15,45,45" style="fill: none; stroke: #1d56e6; stroke-miterlimit: 10; stroke-width: 0px;"/>
            <line x1="420.25" y1="191.13" x2="420.25" y2="90.25" style="fill: none; stroke: #1d56e6; stroke-miterlimit: 10; stroke-width: 0px;"/>
            <line x1="466.75" y1="195.21" x2="466.75" y2="90.25" style="fill: none; stroke: #1d56e6; stroke-miterlimit: 10; stroke-width: 0px;"/>
            <polyline points="556.75 90.25 600.25 90.25 601.75 90.25" style="fill: none; stroke: #1d56e6; stroke-miterlimit: 10; stroke-width: 0px;"/>
            <line x1="420.25" y1="191.13" x2="431.59" y2="202.47" style="fill: none; stroke: #1d56e6; stroke-miterlimit: 10; stroke-width: 0px;"/>
            <line x1="431.59" y1="202.47" x2="452.8" y2="181.26" style="fill: none; stroke: #1d56e6; stroke-miterlimit: 10; stroke-width: 0px;"/>
            <line x1="452.8" y1="181.26" x2="466.75" y2="195.21" style="fill: none; stroke: #1d56e6; stroke-miterlimit: 10; stroke-width: 0px;"/>
            </g>
        </g>
        <g>
            <g>
            <path d="M544.89,293.34l-110.5-73.67,18.41-18.41,14.26,14.26c2.41,20.64,18.78,37.01,39.41,39.42h.01s38.41,38.4,38.41,38.4Z" style="fill: #bbbbbb; stroke-width: 0px;"/>
            <path d="M544.89,293.34c-10.67,4.45-22.37,6.91-34.64,6.91-49.41,0-89.52-39.81-89.99-89.11l11.33,11.33,2.8-2.8,110.5,73.67Z" style="fill: #bbbbbb; stroke-width: 0px;"/>
            </g>
            <g>
            <path d="M544.89,293.34c-10.67,4.45-22.37,6.91-34.64,6.91-49.41,0-89.52-39.81-89.99-89.11-.01-.29-.01-.59-.01-.89" style="fill: none; stroke: #1d56e6; stroke-miterlimit: 10; stroke-width: 0px;"/>
            <path d="M506.47,254.94c-20.63-2.41-37-18.78-39.41-39.42" style="fill: none; stroke: #1d56e6; stroke-miterlimit: 10; stroke-width: 0px;"/>
            <polyline points="419.81 210.69 420.26 211.14 431.59 222.47" style="fill: none; stroke: #1d56e6; stroke-miterlimit: 10; stroke-width: 0px;"/>
            <polyline points="431.59 222.47 434.39 219.67 452.8 201.26" style="fill: none; stroke: #1d56e6; stroke-miterlimit: 10; stroke-width: 0px;"/>
            <line x1="506.48" y1="254.93" x2="544.89" y2="293.34" style="fill: none; stroke: #1d56e6; stroke-miterlimit: 10; stroke-width: 0px;"/>
            <line x1="452.8" y1="201.26" x2="467.06" y2="215.52" style="fill: none; stroke: #1d56e6; stroke-miterlimit: 10; stroke-width: 0px;"/>
            </g>
        </g>
        <g>
            <g>
            <path d="M274.45,246.58l-63.45-36.33v-10.37l8.45,8.45,21.22-21.22,15.33,15.34v7.8c0,14.92,7.26,28.15,18.45,36.33Z" style="fill: #bbbbbb; stroke-width: 0px;"/>
            <path d="M346.6,287.85l-.03.03-63.44-36.33c5.47,2.38,11.52,3.7,17.87,3.7,3.98,0,7.84-.52,11.51-1.49l-17.15-17.15,31.82-31.82,17.33,16.97c.97-3.67,1.49-7.53,1.49-11.51v-43.14l-.24-.24,15.11-15.11,30.13,30.12v28.37l-12.39,45.6,12.21,12.58-31.82,31.82-12.4-12.4Z" style="fill: #bbbbbb; stroke-width: 0px;"/>
            <path d="M378.61,255.85l12.39-45.6c0,16.64-4.52,32.23-12.39,45.6Z" style="fill: #bbbbbb; stroke-width: 0px;"/>
            <path d="M283.13,251.55l63.44,36.33c-13.37,7.86-28.94,12.37-45.57,12.37-49.71,0-90-40.29-90-90l63.45,36.33c2.68,1.97,5.59,3.64,8.68,4.97Z" style="fill: #bbbbbb; stroke-width: 0px;"/>
            <path d="M344.51,221.76l1.49-11.51c0,3.98-.52,7.84-1.49,11.51Z" style="fill: #fff; stroke-width: 0px;"/>
            <path d="M274.45,246.58l8.68,4.97c-3.09-1.33-6-3-8.68-4.97Z" style="fill: #fff; stroke-width: 0px;"/>
            </g>
            <g>
            <path d="M346.57,287.88c-13.37,7.86-28.94,12.37-45.57,12.37-49.71,0-90-40.29-90-90" style="fill: none; stroke: #1d56e6; stroke-miterlimit: 10; stroke-width: 0px;"/>
            <path d="M391,210.25c0,16.64-4.52,32.23-12.39,45.6" style="fill: none; stroke: #1d56e6; stroke-miterlimit: 10; stroke-width: 0px;"/>
            <path d="M312.51,253.76c-3.67.97-7.53,1.49-11.51,1.49-6.35,0-12.4-1.32-17.87-3.7-3.09-1.33-6-3-8.68-4.97-11.19-8.18-18.45-21.41-18.45-36.33" style="fill: none; stroke: #1d56e6; stroke-miterlimit: 10; stroke-width: 0px;"/>
            <path d="M346,210.25c0,3.98-.52,7.84-1.49,11.51" style="fill: none; stroke: #1d56e6; stroke-miterlimit: 10; stroke-width: 0px;"/>
            <polyline points="211 210.25 211 199.88 211 198.8" style="fill: none; stroke: #1d56e6; stroke-miterlimit: 10; stroke-width: 0px;"/>
            <line x1="256" y1="210.25" x2="256" y2="202.45" style="fill: none; stroke: #1d56e6; stroke-miterlimit: 10; stroke-width: 0px;"/>
            <line x1="346" y1="210.25" x2="346" y2="167.11" style="fill: none; stroke: #1d56e6; stroke-miterlimit: 10; stroke-width: 0px;"/>
            <line x1="391" y1="210.25" x2="391" y2="181.88" style="fill: none; stroke: #1d56e6; stroke-miterlimit: 10; stroke-width: 0px;"/>
            <line x1="312.51" y1="253.76" x2="295.36" y2="236.61" style="fill: none; stroke: #1d56e6; stroke-miterlimit: 10; stroke-width: 0px;"/>
            <polyline points="359 300.25 346.6 287.85 346.48 287.73" style="fill: none; stroke: #1d56e6; stroke-miterlimit: 10; stroke-width: 0px;"/>
            <line x1="359" y1="300.25" x2="390.82" y2="268.43" style="fill: none; stroke: #1d56e6; stroke-miterlimit: 10; stroke-width: 0px;"/>
            <line x1="295.36" y1="236.61" x2="327.18" y2="204.79" style="fill: none; stroke: #1d56e6; stroke-miterlimit: 10; stroke-width: 0px;"/>
            <polyline points="209.92 198.8 211 199.88 219.45 208.33" style="fill: none; stroke: #1d56e6; stroke-miterlimit: 10; stroke-width: 0px;"/>
            <line x1="219.45" y1="208.33" x2="240.67" y2="187.11" style="fill: none; stroke: #1d56e6; stroke-miterlimit: 10; stroke-width: 0px;"/>
            <line x1="240.67" y1="187.11" x2="256" y2="202.45" style="fill: none; stroke: #1d56e6; stroke-miterlimit: 10; stroke-width: 0px;"/>
            <polyline points="345.52 167.11 345.76 166.87 360.87 151.76" style="fill: none; stroke: #1d56e6; stroke-miterlimit: 10; stroke-width: 0px;"/>
            <line x1="360.87" y1="151.76" x2="391" y2="181.88" style="fill: none; stroke: #1d56e6; stroke-miterlimit: 10; stroke-width: 0px;"/>
            <line x1="327.18" y1="204.79" x2="344.51" y2="221.76" style="fill: none; stroke: #1d56e6; stroke-miterlimit: 10; stroke-width: 0px;"/>
            <line x1="378.61" y1="255.85" x2="390.82" y2="268.43" style="fill: none; stroke: #1d56e6; stroke-miterlimit: 10; stroke-width: 0px;"/>
            </g>
        </g>
    </g>
</svg>